<?xml version="1.0" encoding="UTF-8"?>
<svg version="1.1" xmlns="http://www.w3.org/2000/svg" width="32" height="40">
<path d="M0 0 C9.24 0 18.48 0 28 0 C28 13.2 28 26.4 28 40 C13.04560811 40 13.04560811 40 4.6875 36 C3.41616211 35.42765625 3.41616211 35.42765625 2.11914062 34.84375 C0.06852362 33.91691746 -1.9693946 32.96968742 -4 32 C-4.03743535 27.98193862 -4.0543636 24.35034322 -3.4375 20.375 C-2.9894531 16.91863819 -3.33555181 14.39606852 -4 11 C-4.03622333 9.33372702 -4.04899842 7.66594626 -4 6 C-3.34 5.67 -2.68 5.34 -2 5 C-1.34 5.33 -0.68 5.66 0 6 C0 4.02 0 2.04 0 0 Z " fill="#C85C1B" transform="translate(4,0)"/>
<path d="M0 0 C1.64630328 0.14042877 3.29204179 0.28749329 4.9375 0.4375 C6.31228516 0.55931641 6.31228516 0.55931641 7.71484375 0.68359375 C10 1 10 1 11 2 C11.04092937 4.33297433 11.04241723 6.66705225 11 9 C12.32 8.01 13.64 7.02 15 6 C17.49361571 7.20381448 19.68143083 8.45428722 22 10 C21.67 9.4225 21.34 8.845 21 8.25 C20 6 20 6 20 2 C22 1 22 1 30 1 C30 7.6 30 14.2 30 21 C17.64817452 22.16252475 8.98317603 18.24486323 -2 13 C-2.14285714 4.28571429 -2.14285714 4.28571429 0 0 Z " fill="#012866" transform="translate(2,19)"/>
<path d="M0 0 C2.31 0 4.62 0 7 0 C7.86343731 2.28855702 8.7159811 4.5801928 9.5625 6.875 C9.80935547 7.52597656 10.05621094 8.17695313 10.31054688 8.84765625 C10.93173115 10.54497665 11.47152252 12.27156776 12 14 C11.67 14.66 11.34 15.32 11 16 C9.72651788 14.27278316 8.45632943 12.54313762 7.1875 10.8125 C6.12595703 9.36810547 6.12595703 9.36810547 5.04296875 7.89453125 C3.22731563 5.3220667 1.57792699 2.72279516 0 0 Z " fill="#C12438" transform="translate(4,0)"/>
<path d="M0 0 C1.98 0 3.96 0 6 0 C3.08785803 5.3762621 -0.24351901 10.17918273 -4 15 C-5.32830615 11.01508155 -4.23204404 9.59951452 -2.5625 5.8125 C-2.08941406 4.72582031 -1.61632812 3.63914063 -1.12890625 2.51953125 C-0.75636719 1.68808594 -0.38382813 0.85664062 0 0 Z " fill="#C02338" transform="translate(25,0)"/>
<path d="M0 0 C0.33 0 0.66 0 1 0 C1.43314094 3.08612917 1.69047161 5.02006987 1 8 C-2.04208194 11.72991864 -5.42751822 14.47583941 -10 16 C-8.55901911 11.87321179 -6.52700506 8.69813572 -3.9375 5.1875 C-3.22464844 4.21167969 -2.51179688 3.23585937 -1.77734375 2.23046875 C-1.19082031 1.49441406 -0.60429687 0.75835937 0 0 Z " fill="#F8C505" transform="translate(31,0)"/>
<path d="M0 0 C3.76558073 1.25519358 4.5489037 2.91862179 7 6 C8.93932353 7.75825647 10.94944454 9.36887634 13 11 C12.01 11.495 12.01 11.495 11 12 C8.1796875 10.78515625 8.1796875 10.78515625 4.875 9.0625 C3.77929688 8.49660156 2.68359375 7.93070313 1.5546875 7.34765625 C0.71164062 6.90292969 -0.13140625 6.45820313 -1 6 C-1.042721 4.33388095 -1.04063832 2.66617115 -1 1 C-0.67 0.67 -0.34 0.34 0 0 Z " fill="#BF1F3A" transform="translate(1,5)"/>
<path d="M0 0 C4.54075781 4.14010271 7.71842138 8.82390176 11 14 C10.67 14.66 10.34 15.32 10 16 C0.4573991 8.48520179 0.4573991 8.48520179 -0.6640625 4.84375 C-0.625 2.9375 -0.625 2.9375 0 0 Z " fill="#F7C405" transform="translate(4,1)"/>
<path d="M0 0 C1.65 0 3.3 0 5 0 C5.33 4.95 5.66 9.9 6 15 C3.08691178 13.54345589 2.94547684 11.64612352 1.875 8.625 C1.52179687 7.64789062 1.16859375 6.67078125 0.8046875 5.6640625 C0 3 0 3 0 0 Z " fill="#F6C206" transform="translate(11,0)"/>
<path d="M0 0 C1.65 0 3.3 0 5 0 C3.35 4.62 1.7 9.24 0 14 C-0.33 14 -0.66 14 -1 14 C-1.08333357 9.1666528 -0.95261487 4.76307437 0 0 Z " fill="#FBD002" transform="translate(20,0)"/>
<path d="M0 0 C3.3 1.65 6.6 3.3 10 5 C10 5.33 10 5.66 10 6 C3.375 6.125 3.375 6.125 0 5 C-0.33 4.01 -0.66 3.02 -1 2 C-0.67 1.34 -0.34 0.68 0 0 Z " fill="#F7C006" transform="translate(1,11)"/>
<path d="M0 0 C-0.0625 2.25 -0.0625 2.25 -1 5 C-3.24587864 6.81701739 -5.32628881 7.78041244 -8 9 C-8.66 8.67 -9.32 8.34 -10 8 C-8.71451591 6.66070495 -7.42141845 5.32871357 -6.125 4 C-5.04605469 2.88625 -5.04605469 2.88625 -3.9453125 1.75 C-2 0 -2 0 0 0 Z " fill="#C02338" transform="translate(32,8)"/>
<path d="M0 0 C1.32 0 2.64 0 4 0 C3.67 3.3 3.34 6.6 3 10 C2.34 10 1.68 10 1 10 C-0.1577506 6.52674819 -0.06866652 3.63932552 0 0 Z " fill="#BE1D3A" transform="translate(16,0)"/>
<path d="M0 0 C3.375 0.3125 3.375 0.3125 7 1 C7.66 1.99 8.32 2.98 9 4 C6.69 4 4.38 4 2 4 C1.34 2.68 0.68 1.36 0 0 Z " fill="#AE173B" transform="translate(1,16)"/>
<path d="M0 0 C0.33 1.32 0.66 2.64 1 4 C-1.70879335 5.35439668 -4.00933268 5.06501451 -7 5 C-4.702779 3.25728062 -2.40133271 1.60088848 0 0 Z " fill="#F9CA03" transform="translate(31,12)"/>
<path d="M0 0 C0 1.32 0 2.64 0 4 C-2.31 4 -4.62 4 -7 4 C-2.25 0 -2.25 0 0 0 Z " fill="#A7213F" transform="translate(32,16)"/>
</svg>
